<svg xmlns="http://www.w3.org/2000/svg" width="35.391" height="40.298" viewBox="0 0 35.391 40.298">
  <g id="Group_709" data-name="Group 709" transform="translate(-561.056 -273.729)">
    <g id="Group_708" data-name="Group 708" transform="translate(561.056 273.729)">
      <path id="Path_605" data-name="Path 605" d="M596.445,291.974q0,8.758,0,17.517c0,3.3-1.205,4.528-4.445,4.529q-13.271.011-26.54,0c-3.159,0-4.395-1.24-4.4-4.4-.007-11.678-.005-19.766,0-31.444,0-3.164,1.247-4.438,4.355-4.442q13.357-.011,26.716,0c3.014,0,4.3,1.3,4.309,4.311C596.452,283.884,596.445,286.135,596.445,291.974Zm-1.415.3c0-5.956.009-8.322-.005-14.277,0-2.16-.689-2.84-2.863-2.841q-13.357-.013-26.711,0c-2.307,0-2.972.648-2.972,2.91-.009,11.734-.009,19.88,0,31.613,0,2.269.669,2.931,2.953,2.933q13.266.011,26.533,0c2.472,0,3.064-.621,3.066-3.177Q595.036,300.85,595.029,292.27Z" transform="translate(-561.056 -273.729)" fill="#282828"/>
      <path id="Path_606" data-name="Path 606" d="M563.47,283.012v-6.863h26.669v6.863Zm25.247-1.329v-4.094H564.941v4.094Z" transform="translate(-559.14 -271.807)" fill="#282828"/>
      <path id="Path_607" data-name="Path 607" d="M568.959,282.83v5.443h-5.473V282.83Zm-1.422,4.083v-2.66h-2.628v2.66Z" transform="translate(-559.128 -266.504)" fill="#282828"/>
      <path id="Path_608" data-name="Path 608" d="M572.825,288.349h-5.38v-5.505h5.38Zm-4.067-1.521h2.68v-2.554h-2.68Z" transform="translate(-555.985 -266.493)" fill="#282828"/>
      <path id="Path_609" data-name="Path 609" d="M571.362,282.816h5.462v5.493h-5.462Zm4.065,4.1v-2.637h-2.6v2.637Z" transform="translate(-552.875 -266.515)" fill="#282828"/>
      <path id="Path_610" data-name="Path 610" d="M575.324,282.8h5.4v5.5h-5.4Zm4.05,1.478h-2.637v2.6h2.637Z" transform="translate(-549.73 -266.53)" fill="#282828"/>
      <path id="Path_611" data-name="Path 611" d="M568.951,286.778v5.432h-5.462v-5.432Zm-4.092,4.063h2.66v-2.63h-2.66Z" transform="translate(-559.125 -263.37)" fill="#282828"/>
      <path id="Path_612" data-name="Path 612" d="M572.848,292.278h-5.419v-5.505h5.419Zm-1.406-1.419v-2.68h-2.606v2.68Z" transform="translate(-555.997 -263.374)" fill="#282828"/>
      <path id="Path_613" data-name="Path 613" d="M576.77,292.294h-5.38v-5.505h5.38Zm-1.338-4.081h-2.68v2.607h2.68Z" transform="translate(-552.853 -263.361)" fill="#282828"/>
      <path id="Path_614" data-name="Path 614" d="M575.324,286.743h5.4v5.5h-5.4Zm4.054,1.473h-2.642v2.612h2.642Z" transform="translate(-549.73 -263.397)" fill="#282828"/>
      <path id="Path_615" data-name="Path 615" d="M563.48,290.715h5.432v5.462H563.48Zm4.006,4.131v-2.682h-2.556v2.682Z" transform="translate(-559.132 -260.244)" fill="#282828"/>
      <path id="Path_616" data-name="Path 616" d="M572.89,296.209h-5.453v-5.482h5.453Zm-4.042-4.092v2.619h2.628v-2.619Z" transform="translate(-555.991 -260.235)" fill="#282828"/>
      <path id="Path_617" data-name="Path 617" d="M571.386,290.71h5.439v5.444h-5.439Zm1.369,4.054h2.619v-2.628h-2.619Z" transform="translate(-552.856 -260.248)" fill="#282828"/>
      <path id="Path_618" data-name="Path 618" d="M575.343,290.689h5.38v5.505h-5.38Zm3.955,4.178v-2.682h-2.554v2.682Z" transform="translate(-549.715 -260.265)" fill="#282828"/>
    </g>
  </g>
</svg>
