<svg xmlns="http://www.w3.org/2000/svg" width="35.012" height="22.098" viewBox="0 0 35.012 22.098">
  <path id="Path_517" data-name="Path 517" d="M36.489,218.245l-5.556-3.213-2.206-5.446H25.2v-2.751h-13.9v.682H24.516V218.1H6.594v.681H25.2v-8.515h3.073l2.123,5.238,5.418,3.133v5.81H34.45a3.119,3.119,0,0,0-6.206,0H16.189a3.119,3.119,0,0,0-6.206,0H6.594v.681H9.983a3.119,3.119,0,0,0,6.206,0H28.244a3.119,3.119,0,0,0,6.206,0h2.038Zm-23.4,9.007a2.463,2.463,0,1,1,2.458-2.463A2.463,2.463,0,0,1,13.086,227.252Zm18.262,0a2.463,2.463,0,1,1,2.458-2.463A2.463,2.463,0,0,1,31.347,227.252ZM15.883,210.267H3.375v-.681H15.883Zm-1.689,3.015H2.477V212.6H14.194Zm-7.6,2.856v-.681h7.6v.681Z" transform="translate(-1.977 -206.335)" fill="#414141" stroke="#414141" stroke-width="1"/>
</svg>
