<svg xmlns="http://www.w3.org/2000/svg" width="32.145" height="52.895" viewBox="0 0 32.145 52.895">
  <g id="european-lot20-compliant-icon" transform="translate(1.005 1)">
    <g id="Group_585" data-name="Group 585">
      <g id="Group_382" data-name="Group 382">
        <g id="Group_380" data-name="Group 380" transform="translate(0 23.332)">
          <path id="Path_458" data-name="Path 458" d="M557.7,285.565c-.019-.165-.034-.329-.048-.493C557.662,285.238,557.679,285.4,557.7,285.565Z" transform="translate(-557.562 -281.375)" fill="none" stroke="#b8d049" stroke-linejoin="round" stroke-width="2"/>
          <path id="Path_459" data-name="Path 459" d="M557.794,286.258q-.037-.24-.07-.485C557.746,285.933,557.769,286.1,557.794,286.258Z" transform="translate(-557.527 -281.054)" fill="none" stroke="#b8d049" stroke-linejoin="round" stroke-width="2"/>
          <path id="Path_460" data-name="Path 460" d="M557.741,285.911c-.022-.162-.039-.324-.058-.485C557.7,285.588,557.719,285.751,557.741,285.911Z" transform="translate(-557.546 -281.213)" fill="none" stroke="#b8d049" stroke-linejoin="round" stroke-width="2"/>
          <path id="Path_461" data-name="Path 461" d="M557.853,286.6c-.028-.16-.054-.319-.077-.481C557.8,286.282,557.824,286.441,557.853,286.6Z" transform="translate(-557.504 -280.896)" fill="none" stroke="#b8d049" stroke-linejoin="round" stroke-width="2"/>
          <path id="Path_462" data-name="Path 462" d="M557.628,284.863c-.01-.168-.02-.337-.026-.5C557.609,284.529,557.618,284.7,557.628,284.863Z" transform="translate(-557.583 -281.701)" fill="none" stroke="#b8d049" stroke-linejoin="round" stroke-width="2"/>
          <path id="Path_463" data-name="Path 463" d="M558.124,287.8c3.086,11.874,14.288,19.884,14.288,19.884v-11.9l-14.161-7.5C558.209,288.123,558.165,287.964,558.124,287.8Z" transform="translate(-557.344 -280.125)" fill="none" stroke="#b8d049" stroke-linejoin="round" stroke-width="2"/>
          <path id="Path_464" data-name="Path 464" d="M557.59,283.636v0Z" transform="translate(-557.589 -282.032)" fill="none" stroke="#b8d049" stroke-linejoin="round" stroke-width="2"/>
          <path id="Path_465" data-name="Path 465" d="M557.606,284.508c-.007-.169-.012-.338-.015-.507C557.6,284.17,557.6,284.339,557.606,284.508Z" transform="translate(-557.588 -281.865)" fill="none" stroke="#b8d049" stroke-linejoin="round" stroke-width="2"/>
          <path id="Path_466" data-name="Path 466" d="M557.657,285.215c-.013-.166-.026-.331-.036-.5C557.633,284.885,557.644,285.051,557.657,285.215Z" transform="translate(-557.574 -281.537)" fill="none" stroke="#b8d049" stroke-linejoin="round" stroke-width="2"/>
          <path id="Path_467" data-name="Path 467" d="M557.6,283.273q-.009.262-.009.52Q557.589,283.535,557.6,283.273Z" transform="translate(-557.589 -282.198)" fill="none" stroke="#b8d049" stroke-linejoin="round" stroke-width="2"/>
          <path id="Path_468" data-name="Path 468" d="M557.617,282.9c-.009.176-.017.351-.022.526C557.6,283.256,557.608,283.081,557.617,282.9Z" transform="translate(-557.586 -282.366)" fill="none" stroke="#b8d049" stroke-linejoin="round" stroke-width="2"/>
          <path id="Path_469" data-name="Path 469" d="M557.92,286.941c-.031-.159-.061-.319-.089-.478C557.859,286.623,557.888,286.784,557.92,286.941Z" transform="translate(-557.478 -280.739)" fill="none" stroke="#b8d049" stroke-linejoin="round" stroke-width="2"/>
          <path id="Path_470" data-name="Path 470" d="M557.643,282.535c-.013.178-.025.356-.034.533C557.619,282.891,557.629,282.713,557.643,282.535Z" transform="translate(-557.58 -282.535)" fill="none" stroke="#b8d049" stroke-linejoin="round" stroke-width="2"/>
          <path id="Path_471" data-name="Path 471" d="M558.159,287.951c-.041-.157-.077-.316-.118-.477C558.077,287.633,558.118,287.792,558.159,287.951Z" transform="translate(-557.382 -280.277)" fill="none" stroke="#b8d049" stroke-linejoin="round" stroke-width="2"/>
          <path id="Path_472" data-name="Path 472" d="M557.993,287.28c-.033-.159-.068-.318-.1-.476C557.924,286.963,557.96,287.123,557.993,287.28Z" transform="translate(-557.45 -280.583)" fill="none" stroke="#b8d049" stroke-linejoin="round" stroke-width="2"/>
          <path id="Path_473" data-name="Path 473" d="M558.073,287.617c-.039-.157-.074-.316-.109-.477C558,287.3,558.034,287.459,558.073,287.617Z" transform="translate(-557.417 -280.429)" fill="none" stroke="#b8d049" stroke-linejoin="round" stroke-width="2"/>
        </g>
        <path id="Path_474" data-name="Path 474" d="M571.837,287.023v-20.5a56.965,56.965,0,0,0-12.456,14.322" transform="translate(-556.77 -266.524)" fill="none" stroke="#b8d049" stroke-linejoin="round" stroke-width="2"/>
        <path id="Path_475" data-name="Path 475" d="M572.655,301.982v-18.67l-12.457-6.96A23.48,23.48,0,0,0,557.776,290" transform="translate(-557.588 -262.03)" fill="none" stroke="#b8d049" stroke-linejoin="round" stroke-width="2"/>
      </g>
      <g id="Group_382-2" data-name="Group 382" transform="translate(15.068)">
        <g id="Group_380-2" data-name="Group 380" transform="translate(0 23.332)">
          <path id="Path_458-2" data-name="Path 458" d="M578.225,285.072c-.015.163-.029.328-.048.493C578.2,285.4,578.211,285.238,578.225,285.072Z" transform="translate(-563.243 -281.375)" fill="none" stroke="#b8d049" stroke-linejoin="round" stroke-width="2"/>
          <path id="Path_459-2" data-name="Path 459" d="M578.156,285.773q-.033.245-.07.485C578.111,286.1,578.134,285.933,578.156,285.773Z" transform="translate(-563.285 -281.054)" fill="none" stroke="#b8d049" stroke-linejoin="round" stroke-width="2"/>
          <path id="Path_460-2" data-name="Path 460" d="M578.193,285.426c-.019.162-.036.324-.058.485C578.157,285.751,578.176,285.588,578.193,285.426Z" transform="translate(-563.263 -281.213)" fill="none" stroke="#b8d049" stroke-linejoin="round" stroke-width="2"/>
          <path id="Path_461-2" data-name="Path 461" d="M578.108,286.12c-.025.162-.051.321-.079.481C578.06,286.441,578.084,286.282,578.108,286.12Z" transform="translate(-563.311 -280.896)" fill="none" stroke="#b8d049" stroke-linejoin="round" stroke-width="2"/>
          <path id="Path_462-2" data-name="Path 462" d="M578.264,284.36c-.006.166-.015.335-.026.5C578.25,284.7,578.257,284.529,578.264,284.36Z" transform="translate(-563.215 -281.701)" fill="none" stroke="#b8d049" stroke-linejoin="round" stroke-width="2"/>
          <path id="Path_463-2" data-name="Path 463" d="M582.09,288.281l-14.161,7.5v11.9s11.2-8.01,14.29-19.884C582.176,287.964,582.134,288.123,582.09,288.281Z" transform="translate(-567.929 -280.125)" fill="none" stroke="#b8d049" stroke-linejoin="round" stroke-width="2"/>
          <path id="Path_464-2" data-name="Path 464" d="M578.268,284.15v0Z" transform="translate(-563.202 -282.032)" fill="none" stroke="#b8d049" stroke-linejoin="round" stroke-width="2"/>
          <path id="Path_465-2" data-name="Path 465" d="M578.273,284c0,.169-.009.338-.016.507C578.263,284.339,578.267,284.17,578.273,284Z" transform="translate(-563.207 -281.865)" fill="none" stroke="#b8d049" stroke-linejoin="round" stroke-width="2"/>
          <path id="Path_466-2" data-name="Path 466" d="M578.248,284.717c-.01.168-.022.332-.036.5C578.225,285.051,578.238,284.885,578.248,284.717Z" transform="translate(-563.227 -281.537)" fill="none" stroke="#b8d049" stroke-linejoin="round" stroke-width="2"/>
          <path id="Path_467-2" data-name="Path 467" d="M578.273,283.793c0-.172,0-.345-.01-.52C578.27,283.448,578.273,283.621,578.273,283.793Z" transform="translate(-563.204 -282.198)" fill="none" stroke="#b8d049" stroke-linejoin="round" stroke-width="2"/>
          <path id="Path_468-2" data-name="Path 468" d="M578.27,283.431c0-.175-.012-.35-.022-.526C578.258,283.081,578.266,283.256,578.27,283.431Z" transform="translate(-563.211 -282.366)" fill="none" stroke="#b8d049" stroke-linejoin="round" stroke-width="2"/>
          <path id="Path_469-2" data-name="Path 469" d="M578.055,286.463c-.028.159-.058.319-.089.478C578,286.784,578.027,286.623,578.055,286.463Z" transform="translate(-563.34 -280.739)" fill="none" stroke="#b8d049" stroke-linejoin="round" stroke-width="2"/>
          <path id="Path_470-2" data-name="Path 470" d="M578.26,283.068c-.009-.178-.02-.356-.034-.533C578.239,282.713,578.249,282.891,578.26,283.068Z" transform="translate(-563.221 -282.535)" fill="none" stroke="#b8d049" stroke-linejoin="round" stroke-width="2"/>
          <path id="Path_471-2" data-name="Path 471" d="M577.854,287.474c-.041.16-.077.319-.118.477C577.777,287.792,577.818,287.633,577.854,287.474Z" transform="translate(-563.445 -280.277)" fill="none" stroke="#b8d049" stroke-linejoin="round" stroke-width="2"/>
          <path id="Path_472-2" data-name="Path 472" d="M577.995,286.8c-.031.159-.064.318-.1.476C577.931,287.123,577.964,286.963,577.995,286.8Z" transform="translate(-563.371 -280.583)" fill="none" stroke="#b8d049" stroke-linejoin="round" stroke-width="2"/>
          <path id="Path_473-2" data-name="Path 473" d="M577.929,287.14c-.037.16-.072.319-.109.477C577.858,287.459,577.893,287.3,577.929,287.14Z" transform="translate(-563.406 -280.429)" fill="none" stroke="#b8d049" stroke-linejoin="round" stroke-width="2"/>
        </g>
        <path id="Path_474-2" data-name="Path 474" d="M580.385,280.846a56.987,56.987,0,0,0-12.455-14.322v20.5" transform="translate(-567.929 -266.524)" fill="none" stroke="#b8d049" stroke-linejoin="round" stroke-width="2"/>
        <path id="Path_475-2" data-name="Path 475" d="M582.808,290a23.468,23.468,0,0,0-2.423-13.651l-12.455,6.96v18.67" transform="translate(-567.929 -262.03)" fill="none" stroke="#b8d049" stroke-linejoin="round" stroke-width="2"/>
      </g>
    </g>
  </g>
</svg>
