<svg version="1.1" xmlns="http://www.w3.org/2000/svg" xmlns:xlink="http://www.w3.org/1999/xlink" x="0px" y="0px"
	 viewBox="0 0 26.7 26.7" style="enable-background:new 0 0 26.7 26.7;" xml:space="preserve">
<path d="M26.7,21.1c0-0.1,0-0.3-0.1-0.4c-0.1-0.4-1.1-0.8-1.4-1c-1.1-0.6-2.2-1.2-3.2-1.8
	c-0.5-0.3-1.1-0.9-1.7-0.9c-1.2,0-2.8,3.4-3.9,3.4c-0.6-0.1-1.1-0.4-1.6-0.7c-3.3-1.8-6-4.5-7.8-7.8c-0.4-0.5-0.6-1-0.7-1.6
	c0-1,3.4-2.7,3.4-3.9c0-0.6-0.6-1.2-0.9-1.7C8.2,3.7,7.6,2.6,7,1.5C6.8,1.1,6.4,0.2,6,0.1C5.9,0,5.7,0,5.6,0C4.7,0.1,3.8,0.3,3,0.6
	C2.1,1.1,1.4,1.9,1,2.9C0.3,4,0,5.2,0,6.4c0.1,1.7,0.6,3.4,1.3,5c0.4,1.2,0.9,2.3,1.6,3.3c2.4,3.6,5.5,6.7,9.1,9.1
	c1,0.6,2.2,1.2,3.3,1.6c1.6,0.7,3.3,1.2,5,1.3c1.2,0,2.5-0.3,3.5-1c1-0.4,1.8-1.1,2.3-2C26.5,22.9,26.7,22,26.7,21.1z" fill="#706F6F"/>
</svg>
