<svg xmlns="http://www.w3.org/2000/svg" width="29.649" height="30.324" viewBox="0 0 29.649 30.324">
  <path id="Path_485" data-name="Path 485" d="M522.927,601.609v-8.629l8.363,4.248v8.612Zm16.727,0v-8.629l-8.363,4.248v8.612Zm-8.363-4.381,8.363-4.248-8.363-4.148-8.363,4.148Zm4.182-6.322-8.363,4.2m1.211,3.807-3.4-1.683m12.445-9.474,3.4-.664c-5.963-4.77-11.5-4.279-14.709-2.977a13.59,13.59,0,0,0-5.565,4.091,15.167,15.167,0,0,0-2.375,14.069m23.147-18.418-.5,3.236m-15.815,19.645-3.4.664c6.2,4.961,11.971,4.292,15.09,2.837a12.893,12.893,0,0,0,4.86-3.55,15.152,15.152,0,0,0,2.7-14.469M521.05,610.634l.5-3.236" transform="translate(-516.332 -582.122)" fill="none" stroke="#414141" stroke-linecap="round" stroke-linejoin="round" stroke-width="2"/>
</svg>
