<svg xmlns="http://www.w3.org/2000/svg" width="36.063" height="35.571" viewBox="0 0 36.063 35.571">
  <path id="Path_600" data-name="Path 600" d="M516.255,280.164a3.91,3.91,0,0,0-1.143-1.929l-.237-.258c-.243-.265-.488-.53-.735-.813a1.614,1.614,0,0,1-.229-1.856c.155-.346.325-.686.494-1.027.112-.222.223-.445.31-.633a2.805,2.805,0,0,0,.373-1.459,2.654,2.654,0,0,0-1.7-2.488,11.954,11.954,0,0,0-1.271-.384c-.183-.048-.366-.1-.546-.148l-.146-.041c-.2-.059-.4-.116-.616-.194a1.557,1.557,0,0,1-1.045-1.3c-.073-.443-.119-.889-.166-1.335-.027-.252-.053-.5-.084-.752a2.83,2.83,0,0,0-2.278-2.446,3.277,3.277,0,0,0-1.623.159c-.232.072-.464.147-.7.221-.378.122-.757.244-1.161.361a1.429,1.429,0,0,1-1.49-.38c-.282-.287-.541-.6-.813-.93-.134-.163-.269-.325-.407-.486l-.309-.355a2.817,2.817,0,0,0-2.466-.979,2.709,2.709,0,0,0-2.005,1.145c-.224.261-.444.525-.665.789l-.516.615a1.655,1.655,0,0,1-1.93.531c-.627-.2-1.259-.4-1.884-.584a2.909,2.909,0,0,0-1.383-.09,2.839,2.839,0,0,0-2.274,2.5l-.245,1.963a1.627,1.627,0,0,1-1.3,1.462c-.3.087-.6.165-.9.242-.273.071-.547.142-.783.21a3.225,3.225,0,0,0-1.455.735,2.628,2.628,0,0,0-.729,2.888,14.149,14.149,0,0,0,.6,1.33,5.048,5.048,0,0,0,.357.7,1.832,1.832,0,0,1,.178,1.39,1.534,1.534,0,0,1-.463.8c-.172.193-.347.383-.522.573-.281.3-.562.611-.83.921a2.757,2.757,0,0,0,.106,3.75,6.475,6.475,0,0,0,1.105.8c.184.122.372.238.561.354a10,10,0,0,1,.9.6,1.442,1.442,0,0,1,.561,1.457c-.109.679-.227,1.359-.342,2.027a2.811,2.811,0,0,0,2.122,3.265,2.7,2.7,0,0,0,.609.072c.311,0,.626-.005.939-.01.4-.006.806-.011,1.222-.007a2.722,2.722,0,0,1,.712.094,1.323,1.323,0,0,1,.794.732c.265.558.571,1.217.823,1.863a2.9,2.9,0,0,0,2.03,1.832c.112.031.227.053.341.075l.136.026a.536.536,0,0,0,.114.012h.208a.574.574,0,0,0,.129-.015,5.052,5.052,0,0,0,1.945-.937c.439-.288.878-.575,1.352-.85a1.241,1.241,0,0,1,1.322-.01c.445.257.87.539,1.318.838l.106.069a5.22,5.22,0,0,0,1.606.831l.252.06a.532.532,0,0,0,.128.015h.311a.556.556,0,0,0,.141-.018l.187-.047c.158-.038.315-.078.458-.126a2.6,2.6,0,0,0,1.6-1.414l.19-.426c.216-.484.433-.97.634-1.47a1.91,1.91,0,0,1,1.206-1.145h.571c.7,0,1.4,0,2.083-.011a2.7,2.7,0,0,0,2.7-2.189,3.3,3.3,0,0,0-.029-1.36c-.04-.255-.085-.509-.129-.763-.061-.349-.123-.7-.174-1.065a1.5,1.5,0,0,1,.722-1.548c.468-.316.98-.631,1.638-1.011a2.847,2.847,0,0,0,1.482-2,.546.546,0,0,0,.056-.243V280.3A.566.566,0,0,0,516.255,280.164Zm-1.089.643a.392.392,0,0,0-.016.072,1.759,1.759,0,0,1-.948,1.324c-.7.4-1.238.734-1.706,1.051a2.578,2.578,0,0,0-1.217,2.644c.05.364.113.725.177,1.088.044.247.087.495.134.786a2.278,2.278,0,0,1,.027.938A1.658,1.658,0,0,1,510,290c-.693.013-1.385.011-2.076.01h-.562a1.37,1.37,0,0,0-.4.061,3.026,3.026,0,0,0-1.848,1.786c-.192.477-.4.95-.614,1.421l-.19.426a1.5,1.5,0,0,1-.932.814c-.127.043-.254.073-.38.1l-.313.033-.144-.033a4.2,4.2,0,0,1-1.263-.667l-.134-.089c-.444-.3-.9-.6-1.37-.871a2.33,2.33,0,0,0-2.46.02c-.471.273-.927.571-1.424.9a4.007,4.007,0,0,1-1.493.741l-.186-.02c-.084-.016-.168-.031-.265-.057a1.814,1.814,0,0,1-1.276-1.152c-.27-.691-.586-1.372-.853-1.933a2.428,2.428,0,0,0-1.471-1.328,3.864,3.864,0,0,0-1.038-.144c-.414-.005-.828,0-1.241.007-.289,0-.578.009-.88.009a1.439,1.439,0,0,1-.4-.042,1.712,1.712,0,0,1-1.29-1.994c.119-.682.238-1.367.343-2.03a2.533,2.533,0,0,0-.985-2.533,10.967,10.967,0,0,0-.979-.653c-.177-.109-.356-.218-.561-.353a5.664,5.664,0,0,1-.916-.649,1.653,1.653,0,0,1-.04-2.238c.263-.3.536-.6.809-.9.178-.194.356-.388.5-.551a2.567,2.567,0,0,0,.745-1.312,2.929,2.929,0,0,0-.3-2.207,4.39,4.39,0,0,1-.307-.6c-.211-.412-.4-.838-.565-1.253a1.528,1.528,0,0,1,.427-1.676,2.161,2.161,0,0,1,.99-.49c.263-.075.528-.144.793-.212.31-.081.621-.161.895-.242a2.7,2.7,0,0,0,2.123-2.418l.245-1.956a1.732,1.732,0,0,1,1.377-1.534,1.8,1.8,0,0,1,.854.061c.628.185,1.251.378,1.839.568a2.739,2.739,0,0,0,3.165-.881l.5-.595c.218-.261.436-.521.694-.827a1.654,1.654,0,0,1,1.24-.716,1.724,1.724,0,0,1,1.512.6l.313.36c.132.154.262.311.392.468.276.335.561.68.869.993a2.527,2.527,0,0,0,2.615.669c.393-.113.784-.239,1.173-.364.228-.074.456-.148.714-.228a2.205,2.205,0,0,1,1.074-.117,1.724,1.724,0,0,1,1.374,1.492c.029.245.055.489.081.735.049.468.1.935.171,1.375a2.648,2.648,0,0,0,1.771,2.186c.222.082.45.148.678.213l.144.042c.19.054.381.1.572.154a10.989,10.989,0,0,1,1.151.346,1.563,1.563,0,0,1,1,1.473,1.778,1.778,0,0,1-.246.934c-.105.219-.213.436-.321.653-.177.354-.353.708-.5,1.039a2.7,2.7,0,0,0,.4,3.071c.243.278.493.551.743.822l.251.275.035.035a2.811,2.811,0,0,1,.819,1.336Zm-14.238-13.694a16.079,16.079,0,0,0-2.359-.224c-.22.013-.424.021-.618.029a11.484,11.484,0,0,0-1.173.087,11.335,11.335,0,0,0-2.911.862,11.687,11.687,0,0,0-6.2,6.671,11.61,11.61,0,0,0,7,14.857,8.046,8.046,0,0,0,2.413.58c.529.029,1.05.043,1.552.043.246,0,.488,0,.726-.011a8.822,8.822,0,0,0,1.681-.188,11.317,11.317,0,0,0,5.819-3.2h0a11.87,11.87,0,0,0,2.592-12.247A11.442,11.442,0,0,0,500.929,267.114Zm5.135,18.737a10.227,10.227,0,0,1-5.252,2.892,7.867,7.867,0,0,1-1.479.163c-.7.022-1.435.01-2.177-.03a6.973,6.973,0,0,1-2.092-.508,10.509,10.509,0,0,1-6.353-13.455,10.58,10.58,0,0,1,5.61-6.039A8.807,8.807,0,0,1,498,268.02c.2-.008.412-.017.593-.029a15.123,15.123,0,0,1,2.137.206,10.335,10.335,0,0,1,7.688,6.555A10.757,10.757,0,0,1,506.063,285.851Zm-11.708-12.657h1.164V283.25H494.2v-8.789h-.032l-1.752.944-.264-1.035Zm7.29-.176c-2.048,0-3.506,1.857-3.506,5.229.031,3.331,1.364,5.172,3.334,5.172,2.234,0,3.506-1.888,3.506-5.307C504.98,274.914,503.767,273.022,501.646,273.018Zm-.094,9.349c-1.241,0-2.047-1.485-2.047-4.1h0c0-2.738.869-4.193,2.063-4.191,1.411,0,2.047,1.624,2.047,4.1C503.614,280.743,502.948,282.366,501.552,282.366Z" transform="translate(-480.458 -260.441)" fill="#414141" stroke="#414141" stroke-width="0.5"/>
</svg>
