<svg xmlns="http://www.w3.org/2000/svg" width="19.349" height="31.294" viewBox="0 0 19.349 31.294">
  <g id="european-lot20-compliant-icon" transform="translate(1.003 1)">
    <g id="Group_585" data-name="Group 585">
      <g id="Group_382" data-name="Group 382">
        <g id="Group_380" data-name="Group 380" transform="translate(0 13.429)">
          <path id="Path_458" data-name="Path 458" d="M557.676,285.355c-.011-.095-.019-.19-.028-.284C557.656,285.168,557.666,285.262,557.676,285.355Z" transform="translate(-557.599 -282.944)" fill="none" stroke="#b8d049" stroke-linecap="round" stroke-linejoin="round" stroke-width="2"/>
          <path id="Path_459" data-name="Path 459" d="M557.764,286.052q-.022-.138-.04-.279C557.737,285.865,557.75,285.96,557.764,286.052Z" transform="translate(-557.611 -283.057)" fill="none" stroke="#b8d049" stroke-linecap="round" stroke-linejoin="round" stroke-width="2"/>
          <path id="Path_460" data-name="Path 460" d="M557.716,285.705c-.013-.093-.023-.186-.034-.279C557.693,285.519,557.7,285.613,557.716,285.705Z" transform="translate(-557.604 -283.001)" fill="none" stroke="#b8d049" stroke-linecap="round" stroke-linejoin="round" stroke-width="2"/>
          <path id="Path_461" data-name="Path 461" d="M557.82,286.4c-.016-.092-.031-.184-.044-.277C557.789,286.213,557.8,286.3,557.82,286.4Z" transform="translate(-557.619 -283.113)" fill="none" stroke="#b8d049" stroke-linecap="round" stroke-linejoin="round" stroke-width="2"/>
          <path id="Path_462" data-name="Path 462" d="M557.617,284.649c-.006-.1-.012-.194-.015-.289C557.606,284.457,557.611,284.553,557.617,284.649Z" transform="translate(-557.591 -282.829)" fill="none" stroke="#b8d049" stroke-linecap="round" stroke-linejoin="round" stroke-width="2"/>
          <path id="Path_463" data-name="Path 463" d="M558.124,287.805c1.776,6.834,8.224,11.444,8.224,11.444V292.4l-8.151-4.32C558.173,287.988,558.147,287.9,558.124,287.805Z" transform="translate(-557.675 -283.385)" fill="none" stroke="#b8d049" stroke-linecap="round" stroke-linejoin="round" stroke-width="2"/>
          <path id="Path_464" data-name="Path 464" d="M557.59,283.636v0Z" transform="translate(-557.589 -282.713)" fill="none" stroke="#b8d049" stroke-linecap="round" stroke-linejoin="round" stroke-width="2"/>
          <path id="Path_465" data-name="Path 465" d="M557.6,284.293c0-.1-.007-.195-.008-.292C557.593,284.1,557.6,284.2,557.6,284.293Z" transform="translate(-557.589 -282.771)" fill="none" stroke="#b8d049" stroke-linecap="round" stroke-linejoin="round" stroke-width="2"/>
          <path id="Path_466" data-name="Path 466" d="M557.642,285c-.007-.1-.015-.19-.021-.287Q557.631,284.862,557.642,285Z" transform="translate(-557.594 -282.887)" fill="none" stroke="#b8d049" stroke-linecap="round" stroke-linejoin="round" stroke-width="2"/>
          <path id="Path_467" data-name="Path 467" d="M557.594,283.273q0,.151,0,.3Q557.589,283.424,557.594,283.273Z" transform="translate(-557.589 -282.654)" fill="none" stroke="#b8d049" stroke-linecap="round" stroke-linejoin="round" stroke-width="2"/>
          <path id="Path_468" data-name="Path 468" d="M557.607,282.9c0,.1-.01.2-.012.3C557.6,283.107,557.6,283.006,557.607,282.9Z" transform="translate(-557.59 -282.595)" fill="none" stroke="#b8d049" stroke-linecap="round" stroke-linejoin="round" stroke-width="2"/>
          <path id="Path_469" data-name="Path 469" d="M557.882,286.738c-.018-.091-.035-.184-.051-.275C557.847,286.555,557.864,286.647,557.882,286.738Z" transform="translate(-557.628 -283.168)" fill="none" stroke="#b8d049" stroke-linecap="round" stroke-linejoin="round" stroke-width="2"/>
          <path id="Path_470" data-name="Path 470" d="M557.628,282.535c-.008.1-.014.2-.019.307C557.615,282.74,557.621,282.637,557.628,282.535Z" transform="translate(-557.592 -282.535)" fill="none" stroke="#b8d049" stroke-linecap="round" stroke-linejoin="round" stroke-width="2"/>
          <path id="Path_471" data-name="Path 471" d="M558.109,287.748c-.023-.091-.045-.182-.068-.274C558.062,287.565,558.085,287.657,558.109,287.748Z" transform="translate(-557.662 -283.332)" fill="none" stroke="#b8d049" stroke-linecap="round" stroke-linejoin="round" stroke-width="2"/>
          <path id="Path_472" data-name="Path 472" d="M557.951,287.078c-.019-.091-.039-.183-.057-.274C557.912,286.9,557.932,286.988,557.951,287.078Z" transform="translate(-557.638 -283.223)" fill="none" stroke="#b8d049" stroke-linecap="round" stroke-linejoin="round" stroke-width="2"/>
          <path id="Path_473" data-name="Path 473" d="M558.027,287.414c-.023-.091-.043-.182-.063-.274C557.984,287.232,558,287.324,558.027,287.414Z" transform="translate(-557.649 -283.278)" fill="none" stroke="#b8d049" stroke-linecap="round" stroke-linejoin="round" stroke-width="2"/>
        </g>
        <path id="Path_474" data-name="Path 474" d="M566.55,278.322v-11.8a32.785,32.785,0,0,0-7.169,8.243" transform="translate(-557.878 -266.524)" fill="none" stroke="#b8d049" stroke-linecap="round" stroke-linejoin="round" stroke-width="2"/>
        <path id="Path_475" data-name="Path 475" d="M566.262,291.1V280.358l-7.169-4.006a13.515,13.515,0,0,0-1.395,7.857" transform="translate(-557.589 -268.109)" fill="none" stroke="#b8d049" stroke-linecap="round" stroke-linejoin="round" stroke-width="2"/>
      </g>
      <g id="Group_382-2" data-name="Group 382" transform="translate(8.673)">
        <g id="Group_380-2" data-name="Group 380" transform="translate(0 13.429)">
          <path id="Path_458-2" data-name="Path 458" d="M578.2,285.072c-.008.094-.017.189-.028.284C578.188,285.262,578.2,285.168,578.2,285.072Z" transform="translate(-569.582 -282.944)" fill="none" stroke="#b8d049" stroke-linecap="round" stroke-linejoin="round" stroke-width="2"/>
          <path id="Path_459-2" data-name="Path 459" d="M578.126,285.773q-.019.141-.04.279C578.1,285.96,578.114,285.865,578.126,285.773Z" transform="translate(-569.567 -283.057)" fill="none" stroke="#b8d049" stroke-linecap="round" stroke-linejoin="round" stroke-width="2"/>
          <path id="Path_460-2" data-name="Path 460" d="M578.169,285.426c-.011.093-.021.186-.034.279C578.148,285.613,578.158,285.519,578.169,285.426Z" transform="translate(-569.575 -283.001)" fill="none" stroke="#b8d049" stroke-linecap="round" stroke-linejoin="round" stroke-width="2"/>
          <path id="Path_461-2" data-name="Path 461" d="M578.074,286.12c-.014.093-.029.185-.045.277C578.047,286.3,578.061,286.213,578.074,286.12Z" transform="translate(-569.558 -283.113)" fill="none" stroke="#b8d049" stroke-linecap="round" stroke-linejoin="round" stroke-width="2"/>
          <path id="Path_462-2" data-name="Path 462" d="M578.253,284.36c0,.1-.008.193-.015.289C578.245,284.553,578.249,284.457,578.253,284.36Z" transform="translate(-569.592 -282.829)" fill="none" stroke="#b8d049" stroke-linecap="round" stroke-linejoin="round" stroke-width="2"/>
          <path id="Path_463-2" data-name="Path 463" d="M576.08,288.079l-8.151,4.32v6.851s6.448-4.61,8.225-11.444C576.129,287.9,576.1,287.988,576.08,288.079Z" transform="translate(-567.929 -283.385)" fill="none" stroke="#b8d049" stroke-linecap="round" stroke-linejoin="round" stroke-width="2"/>
          <path id="Path_464-2" data-name="Path 464" d="M578.268,283.932v0Z" transform="translate(-569.596 -282.713)" fill="none" stroke="#b8d049" stroke-linecap="round" stroke-linejoin="round" stroke-width="2"/>
          <path id="Path_465-2" data-name="Path 465" d="M578.266,284c0,.1,0,.195-.009.292C578.26,284.2,578.263,284.1,578.266,284Z" transform="translate(-569.595 -282.771)" fill="none" stroke="#b8d049" stroke-linecap="round" stroke-linejoin="round" stroke-width="2"/>
          <path id="Path_466-2" data-name="Path 466" d="M578.233,284.717c-.006.1-.013.191-.021.287C578.22,284.909,578.227,284.813,578.233,284.717Z" transform="translate(-569.587 -282.887)" fill="none" stroke="#b8d049" stroke-linecap="round" stroke-linejoin="round" stroke-width="2"/>
          <path id="Path_467-2" data-name="Path 467" d="M578.269,283.572q0-.149-.006-.3Q578.269,283.424,578.269,283.572Z" transform="translate(-569.596 -282.654)" fill="none" stroke="#b8d049" stroke-linecap="round" stroke-linejoin="round" stroke-width="2"/>
          <path id="Path_468-2" data-name="Path 468" d="M578.261,283.208c0-.1-.007-.2-.013-.3C578.254,283.006,578.258,283.107,578.261,283.208Z" transform="translate(-569.593 -282.595)" fill="none" stroke="#b8d049" stroke-linecap="round" stroke-linejoin="round" stroke-width="2"/>
          <path id="Path_469-2" data-name="Path 469" d="M578.017,286.463c-.016.091-.033.184-.051.275C577.984,286.647,578,286.555,578.017,286.463Z" transform="translate(-569.548 -283.168)" fill="none" stroke="#b8d049" stroke-linecap="round" stroke-linejoin="round" stroke-width="2"/>
          <path id="Path_470-2" data-name="Path 470" d="M578.245,282.842c-.005-.1-.012-.2-.019-.307C578.234,282.637,578.24,282.74,578.245,282.842Z" transform="translate(-569.59 -282.535)" fill="none" stroke="#b8d049" stroke-linecap="round" stroke-linejoin="round" stroke-width="2"/>
          <path id="Path_471-2" data-name="Path 471" d="M577.8,287.474c-.024.092-.044.184-.068.274C577.759,287.657,577.783,287.565,577.8,287.474Z" transform="translate(-569.51 -283.332)" fill="none" stroke="#b8d049" stroke-linecap="round" stroke-linejoin="round" stroke-width="2"/>
          <path id="Path_472-2" data-name="Path 472" d="M577.953,286.8c-.018.091-.037.183-.056.274C577.916,286.988,577.935,286.9,577.953,286.8Z" transform="translate(-569.536 -283.223)" fill="none" stroke="#b8d049" stroke-linecap="round" stroke-linejoin="round" stroke-width="2"/>
          <path id="Path_473-2" data-name="Path 473" d="M577.883,287.14c-.021.092-.041.184-.063.274C577.842,287.324,577.862,287.232,577.883,287.14Z" transform="translate(-569.524 -283.278)" fill="none" stroke="#b8d049" stroke-linecap="round" stroke-linejoin="round" stroke-width="2"/>
        </g>
        <path id="Path_474-2" data-name="Path 474" d="M575.1,274.767a32.8,32.8,0,0,0-7.169-8.243v11.8" transform="translate(-567.929 -266.524)" fill="none" stroke="#b8d049" stroke-linecap="round" stroke-linejoin="round" stroke-width="2"/>
        <path id="Path_475-2" data-name="Path 475" d="M576.494,284.209a13.507,13.507,0,0,0-1.395-7.857l-7.169,4.006V291.1" transform="translate(-567.929 -268.109)" fill="none" stroke="#b8d049" stroke-linecap="round" stroke-linejoin="round" stroke-width="2"/>
      </g>
    </g>
  </g>
</svg>
