<svg xmlns="http://www.w3.org/2000/svg" viewBox="0 0 141 82"><defs><style>.a{fill:#f0f5d9;}.b{isolation:isolate;}.c{fill:#707070;}.d{fill:none;stroke:#b8d049;stroke-linejoin:round;stroke-width:2px;}.e{fill:#b8d048;}</style></defs><path class="a" d="M9,6H150V88H9Z" transform="translate(-9 -6)"/><g class="b"><path class="c" d="M76,33.9v1.6h-5.9V25.4H72V34h4Z" transform="translate(-9 -6)"/><path class="c" d="M86.58,30.4a5.22,5.22,0,0,1-.4,2.1,4.35,4.35,0,0,1-1,1.6,6.45,6.45,0,0,1-1.6,1.1,5.71,5.71,0,0,1-4.2,0,4.57,4.57,0,0,1-1.6-1.1,5.37,5.37,0,0,1-1-1.6,6.54,6.54,0,0,1-.4-2.1,5.22,5.22,0,0,1,.4-2.1,4.35,4.35,0,0,1,1-1.6,6.45,6.45,0,0,1,1.6-1.1,4.64,4.64,0,0,1,2.1-.4,5.9,5.9,0,0,1,1.4.2,3.34,3.34,0,0,1,1.2.5,5.8,5.8,0,0,1,1.8,1.8,6.12,6.12,0,0,1,.5,1.2A4.14,4.14,0,0,1,86.58,30.4Zm-1.9,0a6.05,6.05,0,0,0-.2-1.5,4.13,4.13,0,0,0-.7-1.1,3.59,3.59,0,0,0-1-.7,2.74,2.74,0,0,0-1.3-.2,5.07,5.07,0,0,0-1.3.2,3.59,3.59,0,0,0-1,.7,2.38,2.38,0,0,0-.6,1.1,5.73,5.73,0,0,0,0,3,3.88,3.88,0,0,0,.6,1.1,2.55,2.55,0,0,0,1,.7,2.74,2.74,0,0,0,1.3.2,5.07,5.07,0,0,0,1.3-.2,3.59,3.59,0,0,0,1-.7,2.38,2.38,0,0,0,.6-1.1A3.34,3.34,0,0,0,84.68,30.4Z" transform="translate(-9 -6)"/><path class="c" d="M95,26.9h-3.1v8.6h-1.8V26.9H87V25.4h8Z" transform="translate(-9 -6)"/><path class="c" d="M102.08,33.9a.71.71,0,0,1,.6.6v1h-6.9v-.6a.76.76,0,0,1,.1-.4.77.77,0,0,1,.2-.3l3-3.1.7-.7a3,3,0,0,0,.5-.7c.1-.2.2-.5.3-.7a2,2,0,0,0,.1-.8c0-.2,0-.5-.1-.6a2.19,2.19,0,0,1-.3-.5,2.19,2.19,0,0,0-.5-.3,1.85,1.85,0,0,0-1.2,0c-.2.1-.3.1-.5.2a1.38,1.38,0,0,0-.3.4c-.1.2-.2.3-.2.5s-.2.4-.3.4a.45.45,0,0,1-.5,0l-.9-.2a5,5,0,0,1,.4-1.3,2.36,2.36,0,0,1,.8-.9,8.79,8.79,0,0,1,1-.6,4.32,4.32,0,0,1,2.6,0,2.07,2.07,0,0,1,1,.6,2.74,2.74,0,0,1,.8,2.1,3,3,0,0,1-.2,1,1.82,1.82,0,0,1-.4,1.1,5.55,5.55,0,0,1-.6.8,6,6,0,0,1-.8.8L98.18,34a6.37,6.37,0,0,1,.7-.2,1.49,1.49,0,0,1,.6-.1h2.6Z" transform="translate(-9 -6)"/><path class="c" d="M111.08,30.4a8,8,0,0,1-.3,2.3,4.77,4.77,0,0,1-.8,1.6,2.73,2.73,0,0,1-1.2.9,3.9,3.9,0,0,1-3,0,3.45,3.45,0,0,1-1.2-.9,6,6,0,0,1-.8-1.6,8,8,0,0,1-.3-2.3,7.55,7.55,0,0,1,.3-2.3c.4-.6.6-1.1.9-1.6a2.73,2.73,0,0,1,1.2-.9,3.9,3.9,0,0,1,3,0,3.45,3.45,0,0,1,1.2.9,4,4,0,0,1,.8,1.6A16.41,16.41,0,0,1,111.08,30.4Zm-1.8,0a9,9,0,0,0-.2-1.8,1.82,1.82,0,0,0-.4-1.1,1.7,1.7,0,0,0-.6-.6,1.33,1.33,0,0,0-1.4,0,.9.9,0,0,0-.6.6,3.58,3.58,0,0,0-.4,1.1,8.2,8.2,0,0,0,0,3.6,2.3,2.3,0,0,0,.4,1.1,1.7,1.7,0,0,0,.6.6,1.85,1.85,0,0,0,.7.2,1.45,1.45,0,0,0,.7-.2,1.7,1.7,0,0,0,.6-.6,3.58,3.58,0,0,0,.4-1.1A4.44,4.44,0,0,0,109.28,30.4Z" transform="translate(-9 -6)"/></g><g class="b"><path class="c" d="M76.38,51.4v1.1h-6.2v-10h6.2v1.1h-4.8v3.3h3.9V48h-3.9v3.4Z" transform="translate(-9 -6)"/><path class="c" d="M82.58,46.7a.1.1,0,0,1-.1.1h-.2c-.1,0-.1,0-.2-.1s-.2-.1-.3-.2-.3-.1-.5-.2a1.48,1.48,0,0,0-.7-.1,2.39,2.39,0,0,0-.9.2,1.79,1.79,0,0,0-.7.5,2,2,0,0,0-.4.8,6.1,6.1,0,0,0,0,2.2,2,2,0,0,0,.4.8,1.79,1.79,0,0,0,.7.5,2.39,2.39,0,0,0,.9.2c.3,0,.6,0,.7-.1a1.69,1.69,0,0,1,.5-.2c.1-.1.2-.2.3-.2a.37.37,0,0,1,.3-.1c.1,0,.2,0,.2.1l.3.5c-.2.2-.3.4-.5.5l-.6.3a1.85,1.85,0,0,1-.7.2c-.2,0-.5.1-.8.1a4.3,4.3,0,0,1-1.2-.2,3.59,3.59,0,0,1-1-.7,4.13,4.13,0,0,1-.7-1.1,3.89,3.89,0,0,1-.2-1.5,7.72,7.72,0,0,1,.2-1.5,6.72,6.72,0,0,1,.6-1.2,3.92,3.92,0,0,1,1-.8,3.19,3.19,0,0,1,1.4-.3,5.07,5.07,0,0,1,1.3.2,3.59,3.59,0,0,1,1,.7Z" transform="translate(-9 -6)"/><path class="c" d="M87.18,45.3a3.19,3.19,0,0,1,1.4.3,4.13,4.13,0,0,1,1.1.7,3.46,3.46,0,0,1,.7,1.2,3.89,3.89,0,0,1,.2,1.5,6.05,6.05,0,0,1-.2,1.5,2.59,2.59,0,0,1-.7,1.1,2.1,2.1,0,0,1-1.1.7,3.42,3.42,0,0,1-2.8,0,4.13,4.13,0,0,1-1.1-.7,2.38,2.38,0,0,1-.6-1.1,6.8,6.8,0,0,1-.2-1.5,6.05,6.05,0,0,1,.2-1.5,3.75,3.75,0,0,1,.7-1.2,1.64,1.64,0,0,1,1.1-.7A2.5,2.5,0,0,1,87.18,45.3Zm0,6.3a1.86,1.86,0,0,0,1.6-.7,3.68,3.68,0,0,0,.5-2,3.94,3.94,0,0,0-.5-2,1.75,1.75,0,0,0-1.6-.7,2,2,0,0,0-.9.2,3,3,0,0,0-.7.5,2,2,0,0,0-.4.8c0,.5-.1.8-.1,1.3a3.94,3.94,0,0,0,.5,2A2.11,2.11,0,0,0,87.18,51.6Z" transform="translate(-9 -6)"/><path class="c" d="M98,42.2V52.5h-.7a.27.27,0,0,1-.3-.3l-.1-.9a2.84,2.84,0,0,1-1,.9,2.77,2.77,0,0,1-1.3.3,3.59,3.59,0,0,1-1.1-.2,2.7,2.7,0,0,1-.8-.7,3.7,3.7,0,0,1-.5-1.1,6.1,6.1,0,0,1,0-3.1,2.73,2.73,0,0,1,.6-1.2,3.92,3.92,0,0,1,1-.8,2.77,2.77,0,0,1,1.3-.3,3.59,3.59,0,0,1,1.1.2,2.41,2.41,0,0,1,.8.6V42h1Zm-1.2,4.9a2.7,2.7,0,0,0-.8-.7,2.92,2.92,0,0,0-.9-.2,1.58,1.58,0,0,0-1.5.7,3,3,0,0,0-.5,2,4.12,4.12,0,0,0,.1,1.2,2,2,0,0,0,.4.8c.2.2.3.4.6.5a2,2,0,0,0,.8.1,2,2,0,0,0,1.1-.3,3,3,0,0,0,.8-.8V47.1Z" transform="translate(-9 -6)"/><path class="c" d="M105.78,51.5a3.17,3.17,0,0,1-.6.5c-.3.2-.4.3-.7.3s-.5.2-.7.2-.5.1-.8.1a6.75,6.75,0,0,1-1.4-.2,4.13,4.13,0,0,1-1.1-.7,3.46,3.46,0,0,1-.7-1.2,4.15,4.15,0,0,1-.3-1.6,5.9,5.9,0,0,1,.2-1.4,4.13,4.13,0,0,1,.7-1.1,2.29,2.29,0,0,1,1-.7,3.19,3.19,0,0,1,1.4-.3,5,5,0,0,1,1.2.2,1.46,1.46,0,0,1,.9.6,2.07,2.07,0,0,1,.6,1,5.07,5.07,0,0,1,.2,1.3c0,.2,0,.3-.1.4s-.1.1-.2.1h-4.7a5,5,0,0,0,.2,1.2,2.18,2.18,0,0,0,.5.8,1.79,1.79,0,0,0,.7.5,2.92,2.92,0,0,0,.9.2,2,2,0,0,0,.8-.1,1.42,1.42,0,0,1,.6-.2c.2-.1.3-.2.4-.2a.37.37,0,0,1,.3-.1c.1,0,.2,0,.2.1Zm-1-3.3a2,2,0,0,0-.1-.8,2.09,2.09,0,0,0-.4-.6,1.27,1.27,0,0,0-.6-.4,2,2,0,0,0-.8-.1,2,2,0,0,0-1.4.5,2,2,0,0,0-.6,1.4Z" transform="translate(-9 -6)"/><path class="c" d="M111.48,46.6c-.1.1-.1.2-.3.2s-.1,0-.2-.1-.2-.1-.3-.2-.3-.1-.5-.2a1.85,1.85,0,0,0-1.2,0c-.2.1-.3.1-.4.2l-.3.3a.6.6,0,0,0-.1.4c0,.2.1.3.2.5a1.38,1.38,0,0,0,.4.3,1.42,1.42,0,0,0,.6.2,6.37,6.37,0,0,0,.7.2c.2.1.5.2.7.3l.6.3a1,1,0,0,1,.4.5,1.45,1.45,0,0,1,.2.7,2.92,2.92,0,0,1-.2.9,1.79,1.79,0,0,1-.5.7,2.18,2.18,0,0,1-.8.5,3.59,3.59,0,0,1-1.1.2,5.07,5.07,0,0,1-1.3-.2,8.79,8.79,0,0,1-1-.6l.3-.5a.1.1,0,0,1,.1-.1h.2a.37.37,0,0,1,.3.1c.1.1.2.1.3.2a.76.76,0,0,0,.5.2c.2,0,.4.1.7.1s.5,0,.6-.1a1.33,1.33,0,0,0,.5-.3,1.38,1.38,0,0,0,.3-.4.6.6,0,0,0,.1-.4.76.76,0,0,0-.2-.5,1.38,1.38,0,0,0-.4-.3,1.42,1.42,0,0,0-.6-.2,6.37,6.37,0,0,0-.7-.2c-.2-.1-.5-.2-.7-.3a2.09,2.09,0,0,1-.6-.4,1.76,1.76,0,0,1-.4-.5c-.3-.2-.3-.4-.3-.7a2.35,2.35,0,0,1,.2-.8,3,3,0,0,1,.5-.7,5.58,5.58,0,0,1,.8-.5,2,2,0,0,1,1.1-.2,5.07,5.07,0,0,1,1.3.2,2.07,2.07,0,0,1,1,.6Z" transform="translate(-9 -6)"/><path class="c" d="M115,43.2a.37.37,0,0,1-.1.3c0,.1-.1.2-.2.3s-.2.1-.3.2a.5.5,0,0,1-.6,0c-.1,0-.2-.1-.3-.2s-.1-.2-.2-.3-.1-.2-.1-.3a.37.37,0,0,1,.1-.3c0-.1.1-.2.2-.3s.2-.1.3-.2.2-.1.3-.1a.37.37,0,0,1,.3.1c.1,0,.2.1.3.2s.1.2.2.3S115,43.1,115,43.2Zm-.2,2.2v7.1h-1.2V45.4Z" transform="translate(-9 -6)"/><path class="c" d="M122.78,45.7v.5a.27.27,0,0,1-.3.3h-.8a1.64,1.64,0,0,1,.2,1,2.39,2.39,0,0,1-.2.9,3,3,0,0,1-.5.7,2.18,2.18,0,0,1-.8.5,3.59,3.59,0,0,1-1.1.2,2.77,2.77,0,0,1-.9-.1c-.1.1-.3.2-.3.3a.37.37,0,0,0-.1.3.52.52,0,0,0,.2.4c.1.1.3.1.5.2s.5.1.8.1h.9c.3,0,.6.1.9.1a2.61,2.61,0,0,1,.8.3,1.21,1.21,0,0,1,.5.5,1.88,1.88,0,0,1,.2.8,2.92,2.92,0,0,1-.2.9,5,5,0,0,1-.7.8,1.91,1.91,0,0,1-1,.5,5,5,0,0,1-2.8,0,3,3,0,0,1-1-.4,3.39,3.39,0,0,1-.6-.6,1.85,1.85,0,0,1-.2-.7,1.61,1.61,0,0,1,.3-.9,2,2,0,0,1,.9-.6,1,1,0,0,1-.5-.4,1.42,1.42,0,0,1-.2-.6.37.37,0,0,1,.1-.3c0-.1.1-.2.2-.3l.3-.3a1.38,1.38,0,0,1,.4-.3,3,3,0,0,1-.8-.8,2,2,0,0,1-.3-1.1,2.39,2.39,0,0,1,.2-.9,1.34,1.34,0,0,1,.6-.7,1.93,1.93,0,0,1,.9-.5,4.25,4.25,0,0,1,1.1-.2,2.77,2.77,0,0,1,.9.1,4.88,4.88,0,0,1,.7.3Zm-1.3,7.2c0-.2,0-.3-.1-.4a1.38,1.38,0,0,0-.4-.3,1.27,1.27,0,0,0-.6-.1,1.7,1.7,0,0,1-.7-.1H119a1.48,1.48,0,0,1-.7-.1,1,1,0,0,0-.6.5.73.73,0,0,0-.2.6c0,.2,0,.3.1.4s.2.3.4.4a1.42,1.42,0,0,0,.6.2,4.1,4.1,0,0,0,1.8,0c.3-.1.5-.1.7-.3a.78.78,0,0,0,.4-.4Zm-2.2-3.9a1.48,1.48,0,0,0,.7-.1,1.2,1.2,0,0,0,.8-.8,1.27,1.27,0,0,0,.1-.6,1.16,1.16,0,0,0-.4-1,1.82,1.82,0,0,0-1.1-.4,1.59,1.59,0,0,0-1.2.4,1.28,1.28,0,0,0-.4,1,1.27,1.27,0,0,0,.1.6c.1.2.2.3.3.5s.3.2.5.3S119,49,119.28,49Z" transform="translate(-9 -6)"/><path class="c" d="M125.28,46.4l.5-.5a2.18,2.18,0,0,0,.5-.4,1.42,1.42,0,0,1,.6-.2,1.7,1.7,0,0,1,.7-.1,3,3,0,0,1,1,.2,1.79,1.79,0,0,1,.7.5,3.3,3.3,0,0,1,.7,2v4.6h-1.3V48a1.46,1.46,0,0,0-.4-1.2,1.25,1.25,0,0,0-1.1-.4,1.69,1.69,0,0,0-1,.3,5.5,5.5,0,0,0-.9.7v5.1h-1.2V45.4h.7a.27.27,0,0,1,.3.3Z" transform="translate(-9 -6)"/></g><g class="b"><path class="c" d="M77.28,67.4c.1,0,.1,0,.2.1l.5.6a4.18,4.18,0,0,1-1.5,1.1,4.64,4.64,0,0,1-2.1.4,4.48,4.48,0,0,1-2-.4,4,4,0,0,1-1.5-1,8.64,8.64,0,0,1-1-1.6,6.65,6.65,0,0,1-.3-2.1A5.46,5.46,0,0,1,71,60.8a3.81,3.81,0,0,1,1.6-1.1,4.77,4.77,0,0,1,2-.4,5.82,5.82,0,0,1,1.9.3,3.39,3.39,0,0,1,1.4.9l-.4.6-.1.1h-.2a.37.37,0,0,1-.3-.1,2.19,2.19,0,0,0-.5-.3,4.88,4.88,0,0,0-.7-.3,3.75,3.75,0,0,0-1.1-.1,3.19,3.19,0,0,0-1.4.3,2.84,2.84,0,0,0-1.1.8,2.92,2.92,0,0,0-.7,1.2,4.31,4.31,0,0,0-.3,1.7,4.67,4.67,0,0,0,.3,1.7,3.46,3.46,0,0,0,.7,1.2,4.44,4.44,0,0,0,1.1.8,3.19,3.19,0,0,0,1.4.3,2,2,0,0,0,.8-.1c.2-.1.5-.1.7-.2l.6-.3c.2-.1.3-.3.5-.4C77.08,67.5,77.18,67.4,77.28,67.4Z" transform="translate(-9 -6)"/><path class="c" d="M82.08,62.3a3.19,3.19,0,0,1,1.4.3,4.13,4.13,0,0,1,1.1.7,3.46,3.46,0,0,1,.7,1.2,3.89,3.89,0,0,1,.2,1.5,6.05,6.05,0,0,1-.2,1.5,4.13,4.13,0,0,1-.7,1.1,2.1,2.1,0,0,1-1.1.7,3.42,3.42,0,0,1-2.8,0,4.13,4.13,0,0,1-1.1-.7,2.38,2.38,0,0,1-.6-1.1,3.64,3.64,0,0,1-.2-1.5,6.05,6.05,0,0,1,.2-1.5,4.73,4.73,0,0,1,.7-1.2,1.9,1.9,0,0,1,1.1-.7A2.5,2.5,0,0,1,82.08,62.3Zm0,6.3a1.86,1.86,0,0,0,1.6-.7,3.68,3.68,0,0,0,.5-2,3.94,3.94,0,0,0-.5-2,1.75,1.75,0,0,0-1.6-.7,2,2,0,0,0-.9.2,3,3,0,0,0-.7.5,2.47,2.47,0,0,0-.4.9,3.75,3.75,0,0,0-.1,1.1,3.94,3.94,0,0,0,.5,2A1.86,1.86,0,0,0,82.08,68.6Z" transform="translate(-9 -6)"/><path class="c" d="M87.08,69.5V62.4h.7a.27.27,0,0,1,.3.3l.1.7a6.47,6.47,0,0,1,.9-.8,2,2,0,0,1,1.1-.3,1.59,1.59,0,0,1,1.2.4,2,2,0,0,1,.6,1.1,1.61,1.61,0,0,1,.4-.7l.5-.5.6-.3a1.7,1.7,0,0,1,.7-.1,3,3,0,0,1,1,.2,1.79,1.79,0,0,1,.7.5,2.18,2.18,0,0,1,.5.8,3.59,3.59,0,0,1,.2,1.1v4.7h-1.3V65a1.7,1.7,0,0,0-.4-1.3,1.16,1.16,0,0,0-1-.4,1.27,1.27,0,0,0-.6.1c-.2.1-.3.2-.5.3a.85.85,0,0,0-.3.5,1.7,1.7,0,0,0-.1.7v4.6h-1.3V65a2.27,2.27,0,0,0-.3-1.3,1.16,1.16,0,0,0-1-.4,2.92,2.92,0,0,0-.9.2,2.34,2.34,0,0,0-.7.7v5.3Z" transform="translate(-9 -6)"/><path class="c" d="M99.78,63.5a2.84,2.84,0,0,1,1-.9,2.77,2.77,0,0,1,1.3-.3,3.59,3.59,0,0,1,1.1.2,2.7,2.7,0,0,1,.8.7,3.7,3.7,0,0,1,.5,1.1,6.1,6.1,0,0,1,0,3.1,2.73,2.73,0,0,1-.6,1.2,3.92,3.92,0,0,1-1,.8,2.77,2.77,0,0,1-1.3.3,3.59,3.59,0,0,1-1.1-.2,2.41,2.41,0,0,1-.8-.6V72h-1.3V62.5h.7a.27.27,0,0,1,.3.3Zm0,4.3a4.62,4.62,0,0,0,.7.7,1.34,1.34,0,0,0,.9.2,1.58,1.58,0,0,0,1.5-.7,3,3,0,0,0,.5-2,4.12,4.12,0,0,0-.1-1.2,2,2,0,0,0-.4-.8c-.2-.2-.3-.4-.6-.5a2,2,0,0,0-.8-.1,2,2,0,0,0-1.1.3,3,3,0,0,0-.8.8v3.3Z" transform="translate(-9 -6)"/><path class="c" d="M107.68,59.2V69.5h-1.2V59.2Z" transform="translate(-9 -6)"/><path class="c" d="M111.28,60.2a.37.37,0,0,1-.1.3c0,.1-.1.2-.2.3s-.2.1-.3.2a.5.5,0,0,1-.6,0c-.1,0-.2-.1-.3-.2s-.1-.2-.2-.3-.1-.2-.1-.3a.37.37,0,0,1,.1-.3c0-.1.1-.2.2-.3s.2-.1.3-.2.2-.1.3-.1a.37.37,0,0,1,.3.1c.1,0,.2.1.3.2s.1.2.2.3S111.28,60.1,111.28,60.2Zm-.2,2.2v7.1h-1.2V62.4Z" transform="translate(-9 -6)"/><path class="c" d="M112.88,63.4a2.58,2.58,0,0,1,1.3-.8,4,4,0,0,1,1.5-.3,4.25,4.25,0,0,1,1.1.2,2.1,2.1,0,0,1,1.3,1.3,3.59,3.59,0,0,1,.2,1.1v4.6h-.6a.37.37,0,0,1-.3-.1c-.1,0-.1-.1-.2-.2l-.2-.7c-.2.2-.4.3-.5.5l-.6.3a1.42,1.42,0,0,1-.6.2c-.2,0-.5.1-.7.1a2.2,2.2,0,0,1-.8-.1,3.33,3.33,0,0,1-.6-.3,1.27,1.27,0,0,1-.4-.6,1.88,1.88,0,0,1-.2-.8,1.7,1.7,0,0,1,.9-1.5,3.75,3.75,0,0,1,1.4-.5,11.24,11.24,0,0,1,2-.2V65c0-.6-.1-1-.4-1.2a1.78,1.78,0,0,0-1-.4,2,2,0,0,0-.8.1,2.19,2.19,0,0,0-.5.3,1.38,1.38,0,0,0-.4.3.37.37,0,0,1-.3.1c-.1,0-.2,0-.2-.1s-.1-.1-.2-.2Zm4,2.9c-.6,0-1.1.1-1.5.1a2.93,2.93,0,0,0-1,.3c-.3.1-.4.3-.6.4s-.2.3-.2.5a.9.9,0,0,0,.1.5c.1.1.1.2.2.3s.2.1.4.2a4.33,4.33,0,0,0,.5.1,1.27,1.27,0,0,0,.6-.1.76.76,0,0,0,.5-.2,2.19,2.19,0,0,1,.5-.3c.1-.1.3-.2.4-.4V66.3Z" transform="translate(-9 -6)"/><path class="c" d="M121.18,63.4l.5-.5a2.18,2.18,0,0,0,.5-.4,1.07,1.07,0,0,1,.6-.2c.2,0,.5-.1.7-.1a3,3,0,0,1,1,.2,1.79,1.79,0,0,1,.7.5,3.3,3.3,0,0,1,.7,2v4.6h-1.3V65a1.46,1.46,0,0,0-.4-1.2,1.25,1.25,0,0,0-1.1-.4,1.69,1.69,0,0,0-1,.3,5.5,5.5,0,0,0-.9.7v5.1h-1.1V62.4h.7a.27.27,0,0,1,.3.3Z" transform="translate(-9 -6)"/><path class="c" d="M129.88,69.6a1.73,1.73,0,0,1-1.3-.5,2,2,0,0,1-.5-1.4V63.5h-.9c-.1,0-.1,0-.2-.1s-.1-.1-.1-.2v-.5l1.2-.1.3-2.2c0-.1,0-.1.1-.2a.35.35,0,0,1,.2-.1h.6v2.4h2.1v1h-2.1v4.3a1.45,1.45,0,0,0,.2.7.85.85,0,0,0,.6.2.37.37,0,0,0,.3-.1.35.35,0,0,0,.2-.1.35.35,0,0,1,.2-.1.1.1,0,0,0,.1-.1c.1,0,.1,0,.2.1l.4.6a2.18,2.18,0,0,1-.8.5C130.58,69.6,130.28,69.6,129.88,69.6Z" transform="translate(-9 -6)"/></g><path class="d" d="M24.18,49.14v0Z" transform="translate(-9 -6)"/><path class="d" d="M24.38,50.14a.9.9,0,0,0-.1-.5A.9.9,0,0,0,24.38,50.14Z" transform="translate(-9 -6)"/><path class="d" d="M24.28,49.64a.9.9,0,0,0-.1-.5A.9.9,0,0,1,24.28,49.64Z" transform="translate(-9 -6)"/><path class="d" d="M24.38,50.64c0-.2-.1-.3-.1-.5A.9.9,0,0,1,24.38,50.64Z" transform="translate(-9 -6)"/><path class="d" d="M24.08,48.14v0Z" transform="translate(-9 -6)"/><path class="d" d="M24.88,52.64c3.1,11.9,14.3,19.9,14.3,19.9V60.64L25,53.14A4.33,4.33,0,0,0,24.88,52.64Z" transform="translate(-9 -6)"/><path class="d" d="M24.08,46.54Z" transform="translate(-9 -6)"/><path class="d" d="M24.08,47.54v0Z" transform="translate(-9 -6)"/><path class="d" d="M24.18,48.64v0Z" transform="translate(-9 -6)"/><path class="d" d="M24.08,46v0Z" transform="translate(-9 -6)"/><path class="d" d="M24.08,45.44v0Z" transform="translate(-9 -6)"/><path class="d" d="M24.48,51.14c0-.2-.1-.3-.1-.5A.9.9,0,0,1,24.48,51.14Z" transform="translate(-9 -6)"/><path class="d" d="M24.18,44.94v.5A.45.45,0,0,1,24.18,44.94Z" transform="translate(-9 -6)"/><path class="d" d="M24.88,52.64c0-.2-.1-.3-.1-.5A.9.9,0,0,0,24.88,52.64Z" transform="translate(-9 -6)"/><path class="d" d="M24.58,51.64c0-.2-.1-.3-.1-.5A.9.9,0,0,1,24.58,51.64Z" transform="translate(-9 -6)"/><path class="d" d="M24.78,52.14c0-.2-.1-.3-.1-.5A.9.9,0,0,0,24.78,52.14Z" transform="translate(-9 -6)"/><path class="d" d="M39.18,42.1V21.6a54.92,54.92,0,0,0-12.5,14.31" transform="translate(-9 -6)"/><path class="d" d="M39.18,61.6V42.9l-12.5-7a23,23,0,0,0-2.4,13.6" transform="translate(-9 -6)"/><path class="d" d="M54.15,48.64v0Z" transform="translate(-9 -6)"/><path class="d" d="M54.05,49.64a.9.9,0,0,1-.1.5A.9.9,0,0,1,54.05,49.64Z" transform="translate(-9 -6)"/><path class="d" d="M54.05,49.14a.9.9,0,0,1-.1.5A.9.9,0,0,0,54.05,49.14Z" transform="translate(-9 -6)"/><path class="d" d="M54,50.14c0,.2-.1.3-.1.5C53.85,50.44,54,50.34,54,50.14Z" transform="translate(-9 -6)"/><path class="d" d="M54.15,47.64v0Z" transform="translate(-9 -6)"/><path class="d" d="M53.35,53.14l-14.2,7.5v11.9s11.2-8,14.3-19.9A.75.75,0,0,0,53.35,53.14Z" transform="translate(-9 -6)"/><path class="d" d="M54.25,47Z" transform="translate(-9 -6)"/><path class="d" d="M54.25,47v0Z" transform="translate(-9 -6)"/><path class="d" d="M54.15,48.14v0Z" transform="translate(-9 -6)"/><path class="d" d="M54.25,46.54v0Z" transform="translate(-9 -6)"/><path class="d" d="M54.25,46v-.5C54.15,45.64,54.25,45.84,54.25,46Z" transform="translate(-9 -6)"/><path class="d" d="M53.85,50.64c0,.2-.1.3-.1.5A.9.9,0,0,0,53.85,50.64Z" transform="translate(-9 -6)"/><path class="d" d="M54.15,45.44v0Z" transform="translate(-9 -6)"/><path class="d" d="M53.55,52.14c0,.2-.1.3-.1.5C53.45,52.44,53.55,52.34,53.55,52.14Z" transform="translate(-9 -6)"/><path class="d" d="M53.75,51.14c0,.2-.1.3-.1.5A.9.9,0,0,0,53.75,51.14Z" transform="translate(-9 -6)"/><path class="d" d="M53.65,51.64c0,.2-.1.3-.1.5A.9.9,0,0,0,53.65,51.64Z" transform="translate(-9 -6)"/><path class="d" d="M51.65,35.91A58.88,58.88,0,0,0,39.15,21.6V42.1" transform="translate(-9 -6)"/><path class="d" d="M54.05,49.6a24.11,24.11,0,0,0-2.4-13.69l-12.5,7V61.6" transform="translate(-9 -6)"/><rect class="e" x="126.5" y="7" width="3" height="12"/><rect class="e" x="122" y="11.5" width="12" height="3"/></svg>